<svg xmlns="http://www.w3.org/2000/svg" xmlns:xlink="http://www.w3.org/1999/xlink" width="230" zoomAndPan="magnify" viewBox="0 0 172.5 30.000001" height="40" preserveAspectRatio="xMidYMid meet" version="1.0"><defs><g/></defs><g fill="#8fbcbb" fill-opacity="1"><g transform="translate(4.84916, 15.62581)"><g><path d="M 1.636719 0 L 3.925781 0 L 3.925781 -12.722656 L 1.636719 -12.722656 Z M 1.636719 0 "/></g></g></g><g fill="#8fbcbb" fill-opacity="1"><g transform="translate(10.412548, 15.62581)"><g><path d="M 9.253906 -12.722656 L 9.253906 -3.828125 L 3.90625 -12.722656 L 1.636719 -12.722656 L 1.636719 0 L 3.835938 0 L 3.835938 -8.941406 L 9.164062 0 L 11.453125 0 L 11.453125 -12.722656 Z M 9.253906 -12.722656 "/></g></g></g><g fill="#8fbcbb" fill-opacity="1"><g transform="translate(23.501814, 15.62581)"><g><path d="M 9.253906 -12.722656 L 9.253906 -3.828125 L 3.90625 -12.722656 L 1.636719 -12.722656 L 1.636719 0 L 3.835938 0 L 3.835938 -8.941406 L 9.164062 0 L 11.453125 0 L 11.453125 -12.722656 Z M 9.253906 -12.722656 "/></g></g></g><g fill="#8fbcbb" fill-opacity="1"><g transform="translate(36.59108, 15.62581)"><g><path d="M 6.878906 0.179688 C 11.082031 0.179688 13.019531 -2.898438 13.019531 -6.363281 C 13.019531 -9.832031 11.082031 -12.910156 6.878906 -12.910156 C 2.675781 -12.910156 0.738281 -9.832031 0.738281 -6.363281 C 0.738281 -2.898438 2.675781 0.179688 6.878906 0.179688 Z M 6.878906 -1.84375 C 4.148438 -1.84375 3.152344 -3.960938 3.152344 -6.363281 C 3.152344 -8.761719 4.148438 -10.875 6.878906 -10.875 C 9.605469 -10.875 10.605469 -8.761719 10.605469 -6.363281 C 10.605469 -3.960938 9.605469 -1.84375 6.878906 -1.84375 Z M 6.878906 -1.84375 "/></g></g></g><g fill="#8fbcbb" fill-opacity="1"><g transform="translate(50.346512, 15.62581)"><g><path d="M 9.480469 -12.722656 L 6.066406 -3.710938 L 2.636719 -12.722656 L 0.109375 -12.722656 L 5.203125 0 L 6.914062 0 L 11.984375 -12.722656 Z M 9.480469 -12.722656 "/></g></g></g><g fill="#8fbcbb" fill-opacity="1"><g transform="translate(62.436534, 15.62581)"><g><path d="M 0.109375 0 L 2.601562 0 L 3.628906 -2.765625 L 8.5 -2.765625 L 9.515625 0 L 11.984375 0 L 6.914062 -12.722656 L 5.203125 -12.722656 Z M 4.347656 -4.71875 L 6.066406 -9.363281 L 7.777344 -4.71875 Z M 4.347656 -4.71875 "/></g></g></g><g fill="#8fbcbb" fill-opacity="1"><g transform="translate(74.526557, 15.62581)"><g><path d="M 4.167969 0 L 6.457031 0 L 6.457031 -10.675781 L 10.433594 -10.675781 L 10.433594 -12.722656 L 0.179688 -12.722656 L 0.179688 -10.675781 L 4.167969 -10.675781 Z M 4.167969 0 "/></g></g></g><g fill="#8fbcbb" fill-opacity="1"><g transform="translate(85.149207, 15.62581)"><g><path d="M 1.636719 0 L 3.925781 0 L 3.925781 -12.722656 L 1.636719 -12.722656 Z M 1.636719 0 "/></g></g></g><g fill="#8fbcbb" fill-opacity="1"><g transform="translate(90.712596, 15.62581)"><g><path d="M 6.878906 0.179688 C 11.082031 0.179688 13.019531 -2.898438 13.019531 -6.363281 C 13.019531 -9.832031 11.082031 -12.910156 6.878906 -12.910156 C 2.675781 -12.910156 0.738281 -9.832031 0.738281 -6.363281 C 0.738281 -2.898438 2.675781 0.179688 6.878906 0.179688 Z M 6.878906 -1.84375 C 4.148438 -1.84375 3.152344 -3.960938 3.152344 -6.363281 C 3.152344 -8.761719 4.148438 -10.875 6.878906 -10.875 C 9.605469 -10.875 10.605469 -8.761719 10.605469 -6.363281 C 10.605469 -3.960938 9.605469 -1.84375 6.878906 -1.84375 Z M 6.878906 -1.84375 "/></g></g></g><g fill="#8fbcbb" fill-opacity="1"><g transform="translate(104.468028, 15.62581)"><g><path d="M 9.253906 -12.722656 L 9.253906 -3.828125 L 3.90625 -12.722656 L 1.636719 -12.722656 L 1.636719 0 L 3.835938 0 L 3.835938 -8.941406 L 9.164062 0 L 11.453125 0 L 11.453125 -12.722656 Z M 9.253906 -12.722656 "/></g></g></g><g fill="#006e6e" fill-opacity="1"><g transform="translate(117.55013, 15.62581)"><g><path d="M 4.167969 0 L 6.457031 0 L 6.457031 -10.675781 L 10.433594 -10.675781 L 10.433594 -12.722656 L 0.179688 -12.722656 L 0.179688 -10.675781 L 4.167969 -10.675781 Z M 4.167969 0 "/></g></g></g><g fill="#006e6e" fill-opacity="1"><g transform="translate(128.172781, 15.62581)"><g><path d="M 1.636719 0 L 10.101562 0 L 10.101562 -2.160156 L 3.925781 -2.160156 L 3.925781 -5.3125 L 9.679688 -5.3125 L 9.679688 -7.410156 L 3.925781 -7.410156 L 3.925781 -10.625 L 10.101562 -10.625 L 10.101562 -12.722656 L 1.636719 -12.722656 Z M 1.636719 0 "/></g></g></g><g fill="#006e6e" fill-opacity="1"><g transform="translate(139.380583, 15.62581)"><g><path d="M 0.109375 0 L 2.601562 0 L 3.628906 -2.765625 L 8.5 -2.765625 L 9.515625 0 L 11.984375 0 L 6.914062 -12.722656 L 5.203125 -12.722656 Z M 4.347656 -4.71875 L 6.066406 -9.363281 L 7.777344 -4.71875 Z M 4.347656 -4.71875 "/></g></g></g><g fill="#006e6e" fill-opacity="1"><g transform="translate(151.470605, 15.62581)"><g><path d="M 11.46875 -12.722656 L 8.09375 -3.671875 L 4.71875 -12.722656 L 1.636719 -12.722656 L 1.636719 0 L 3.835938 0 L 3.835938 -9.5 L 6.984375 -1.105469 L 9.199219 -1.105469 L 12.351562 -9.5 L 12.351562 0 L 14.546875 0 L 14.546875 -12.722656 Z M 11.46875 -12.722656 "/></g></g></g><g fill="#024959" fill-opacity="1"><g transform="translate(6.179871, 25.929778)"><g><path d="M 4.890625 0 L 5.734375 0 L 3.457031 -5.757812 L 2.441406 -5.757812 L 0.160156 0 L 1.015625 0 L 1.539062 -1.382812 L 4.367188 -1.382812 Z M 1.777344 -2.019531 L 2.910156 -5.019531 L 2.988281 -5.019531 L 4.125 -2.019531 Z M 1.777344 -2.019531 "/></g></g><g transform="translate(12.075194, 25.929778)"><g/></g><g transform="translate(14.131923, 25.929778)"><g><path d="M 3.621094 0.0742188 C 5.246094 0.0742188 6.523438 -0.753906 6.8125 -2.230469 L 6.023438 -2.230469 C 5.753906 -1.15625 4.804688 -0.601562 3.621094 -0.601562 C 2.230469 -0.601562 1.160156 -1.378906 1.160156 -2.882812 C 1.160156 -4.375 2.230469 -5.15625 3.621094 -5.15625 C 4.75 -5.15625 5.671875 -4.640625 5.980469 -3.667969 L 6.785156 -3.667969 C 6.445312 -5.054688 5.191406 -5.835938 3.621094 -5.835938 C 1.785156 -5.835938 0.382812 -4.757812 0.382812 -2.882812 C 0.382812 -1.003906 1.785156 0.0742188 3.621094 0.0742188 Z M 3.621094 0.0742188 "/></g></g><g transform="translate(21.268866, 25.929778)"><g><path d="M 4.515625 -2.09375 C 4.515625 -3.441406 3.746094 -4.105469 2.476562 -4.105469 C 1.148438 -4.105469 0.308594 -3.328125 0.308594 -2.015625 C 0.308594 -0.695312 1.128906 0.078125 2.496094 0.078125 C 3.542969 0.078125 4.253906 -0.449219 4.503906 -1.335938 L 3.777344 -1.335938 C 3.605469 -0.832031 3.175781 -0.519531 2.488281 -0.519531 C 1.632812 -0.519531 1.09375 -0.972656 1.082031 -1.910156 L 4.503906 -1.910156 Z M 2.476562 -3.550781 C 3.28125 -3.550781 3.714844 -3.15625 3.734375 -2.347656 L 1.09375 -2.347656 C 1.171875 -3.160156 1.652344 -3.550781 2.476562 -3.550781 Z M 2.476562 -3.550781 "/></g></g></g><g fill="#024959" fill-opacity="1"><g transform="translate(26.114025, 25.929778)"><g><path d="M 2.59375 -4.105469 C 2.113281 -4.105469 1.699219 -3.847656 1.457031 -3.296875 L 1.371094 -4.023438 L 0.691406 -4.023438 L 0.691406 0 L 1.472656 0 L 1.472656 -2.515625 C 1.472656 -3.273438 1.941406 -3.507812 2.355469 -3.507812 C 2.753906 -3.507812 3.011719 -3.371094 3.011719 -2.765625 L 3.011719 -2.367188 L 3.765625 -2.367188 L 3.765625 -2.921875 C 3.765625 -3.726562 3.347656 -4.105469 2.59375 -4.105469 Z M 2.59375 -4.105469 "/></g></g><g transform="translate(30.075834, 25.929778)"><g><path d="M 3.257812 -4.023438 L 2.066406 -0.515625 L 0.882812 -4.023438 L 0.0507812 -4.023438 L 1.578125 0 L 2.558594 0 L 4.101562 -4.023438 Z M 3.257812 -4.023438 "/></g></g></g><g fill="#024959" fill-opacity="1"><g transform="translate(34.223412, 25.929778)"><g><path d="M 4.515625 -2.09375 C 4.515625 -3.441406 3.746094 -4.105469 2.476562 -4.105469 C 1.148438 -4.105469 0.308594 -3.328125 0.308594 -2.015625 C 0.308594 -0.695312 1.128906 0.078125 2.496094 0.078125 C 3.542969 0.078125 4.253906 -0.449219 4.503906 -1.335938 L 3.777344 -1.335938 C 3.605469 -0.832031 3.175781 -0.519531 2.488281 -0.519531 C 1.632812 -0.519531 1.09375 -0.972656 1.082031 -1.910156 L 4.503906 -1.910156 Z M 2.476562 -3.550781 C 3.28125 -3.550781 3.714844 -3.15625 3.734375 -2.347656 L 1.09375 -2.347656 C 1.171875 -3.160156 1.652344 -3.550781 2.476562 -3.550781 Z M 2.476562 -3.550781 "/></g></g><g transform="translate(39.068572, 25.929778)"><g><path d="M 3.675781 -5.757812 L 3.671875 -3.285156 C 3.40625 -3.773438 2.941406 -4.113281 2.222656 -4.113281 C 1.023438 -4.113281 0.328125 -3.289062 0.328125 -2.019531 C 0.328125 -0.734375 1.03125 0.078125 2.222656 0.078125 C 2.953125 0.078125 3.460938 -0.300781 3.707031 -0.808594 L 3.789062 0 L 4.457031 0 L 4.457031 -5.757812 Z M 2.402344 -0.546875 C 1.535156 -0.546875 1.105469 -1.132812 1.105469 -2.019531 C 1.105469 -2.902344 1.535156 -3.492188 2.402344 -3.492188 C 3.257812 -3.492188 3.742188 -2.863281 3.742188 -2.019531 C 3.742188 -1.171875 3.257812 -0.546875 2.402344 -0.546875 Z M 2.402344 -0.546875 "/></g></g><g transform="translate(44.165847, 25.929778)"><g/></g><g transform="translate(46.222576, 25.929778)"><g><path d="M 3.621094 0.0742188 C 5.246094 0.0742188 6.523438 -0.753906 6.8125 -2.230469 L 6.023438 -2.230469 C 5.753906 -1.15625 4.804688 -0.601562 3.621094 -0.601562 C 2.230469 -0.601562 1.160156 -1.378906 1.160156 -2.882812 C 1.160156 -4.375 2.230469 -5.15625 3.621094 -5.15625 C 4.75 -5.15625 5.671875 -4.640625 5.980469 -3.667969 L 6.785156 -3.667969 C 6.445312 -5.054688 5.191406 -5.835938 3.621094 -5.835938 C 1.785156 -5.835938 0.382812 -4.757812 0.382812 -2.882812 C 0.382812 -1.003906 1.785156 0.0742188 3.621094 0.0742188 Z M 3.621094 0.0742188 "/></g></g></g><g fill="#024959" fill-opacity="1"><g transform="translate(53.359519, 25.929778)"><g><path d="M 2.503906 0.078125 C 3.859375 0.078125 4.710938 -0.726562 4.710938 -2.015625 C 4.710938 -3.296875 3.859375 -4.105469 2.503906 -4.105469 C 1.160156 -4.105469 0.296875 -3.296875 0.296875 -2.015625 C 0.296875 -0.726562 1.167969 0.078125 2.503906 0.078125 Z M 2.5 -0.519531 C 1.597656 -0.519531 1.078125 -1.109375 1.078125 -2.015625 C 1.078125 -2.921875 1.597656 -3.503906 2.5 -3.503906 C 3.410156 -3.503906 3.941406 -2.921875 3.941406 -2.015625 C 3.941406 -1.109375 3.410156 -0.519531 2.5 -0.519531 Z M 2.5 -0.519531 "/></g></g><g transform="translate(58.369596, 25.929778)"><g><path d="M 0.636719 0 L 1.429688 0 L 1.429688 -2.457031 C 1.429688 -3.1875 1.875 -3.496094 2.394531 -3.496094 C 2.875 -3.496094 3.238281 -3.214844 3.238281 -2.582031 L 3.238281 0 L 4.03125 0 L 4.03125 -2.480469 C 4.03125 -3.1875 4.460938 -3.496094 4.992188 -3.496094 C 5.453125 -3.496094 5.820312 -3.226562 5.820312 -2.613281 L 5.820312 0 L 6.609375 0 L 6.609375 -2.804688 C 6.609375 -3.648438 6 -4.105469 5.175781 -4.105469 C 4.585938 -4.105469 4.140625 -3.855469 3.90625 -3.398438 C 3.695312 -3.863281 3.21875 -4.105469 2.640625 -4.105469 C 2.085938 -4.105469 1.648438 -3.863281 1.394531 -3.449219 L 1.351562 -4.023438 L 0.636719 -4.023438 Z M 0.636719 0 "/></g></g><g transform="translate(65.542555, 25.929778)"><g><path d="M 2.84375 -4.105469 C 2.132812 -4.105469 1.632812 -3.714844 1.394531 -3.230469 L 1.304688 -4.023438 L 0.640625 -4.023438 L 0.640625 1.695312 L 1.425781 1.695312 L 1.425781 -0.734375 C 1.6875 -0.261719 2.15625 0.0859375 2.84375 0.0859375 C 4.078125 0.0859375 4.761719 -0.71875 4.761719 -2.011719 C 4.761719 -3.296875 4.078125 -4.105469 2.84375 -4.105469 Z M 2.679688 -0.535156 C 1.851562 -0.535156 1.355469 -1.164062 1.355469 -2.011719 C 1.355469 -2.847656 1.851562 -3.476562 2.679688 -3.476562 C 3.566406 -3.476562 3.992188 -2.921875 3.992188 -2.011719 C 3.992188 -1.097656 3.566406 -0.535156 2.679688 -0.535156 Z M 2.679688 -0.535156 "/></g></g></g><g fill="#024959" fill-opacity="1"><g transform="translate(70.636039, 25.929778)"><g><path d="M 4.492188 -0.511719 C 4.171875 -0.511719 4.078125 -0.765625 4.078125 -1.101562 L 4.078125 -2.703125 C 4.078125 -3.765625 3.230469 -4.097656 2.285156 -4.097656 C 1.25 -4.097656 0.507812 -3.71875 0.425781 -2.746094 L 1.160156 -2.746094 C 1.15625 -3.316406 1.671875 -3.566406 2.25 -3.566406 C 2.808594 -3.566406 3.328125 -3.332031 3.328125 -2.796875 L 3.328125 -2.484375 C 3.058594 -2.492188 2.804688 -2.492188 2.566406 -2.476562 C 1.171875 -2.402344 0.351562 -1.953125 0.351562 -1.035156 C 0.351562 -0.246094 1.019531 0.0820312 1.789062 0.0820312 C 2.523438 0.0820312 3.109375 -0.238281 3.398438 -0.890625 C 3.449219 -0.261719 3.628906 0.0664062 4.246094 0.0664062 C 4.40625 0.0664062 4.59375 0.0429688 4.820312 0 L 4.820312 -0.578125 C 4.6875 -0.53125 4.582031 -0.511719 4.492188 -0.511719 Z M 2.054688 -0.414062 C 1.5 -0.414062 1.117188 -0.621094 1.117188 -1.09375 C 1.117188 -1.710938 1.679688 -2.007812 2.628906 -2.054688 C 2.84375 -2.074219 3.085938 -2.082031 3.351562 -2.066406 C 3.351562 -1.273438 3.019531 -0.414062 2.054688 -0.414062 Z M 2.054688 -0.414062 "/></g></g></g><g fill="#024959" fill-opacity="1"><g transform="translate(75.522902, 25.929778)"><g><path d="M 2.816406 -4.105469 C 2.160156 -4.105469 1.667969 -3.84375 1.410156 -3.359375 L 1.355469 -4.023438 L 0.636719 -4.023438 L 0.636719 0 L 1.429688 0 L 1.429688 -2.402344 C 1.433594 -3.160156 1.957031 -3.496094 2.609375 -3.496094 C 3.164062 -3.496094 3.648438 -3.230469 3.648438 -2.523438 L 3.648438 0 L 4.441406 0 L 4.441406 -2.707031 C 4.441406 -3.613281 3.765625 -4.105469 2.816406 -4.105469 Z M 2.816406 -4.105469 "/></g></g><g transform="translate(80.510232, 25.929778)"><g><path d="M 3.355469 -4.023438 L 2.101562 -0.59375 L 0.90625 -4.023438 L 0.0390625 -4.023438 L 1.738281 0.199219 L 1.667969 0.378906 C 1.429688 0.945312 1.214844 1.097656 0.730469 1.097656 L 0.367188 1.097656 L 0.367188 1.695312 L 0.773438 1.695312 C 1.621094 1.695312 1.980469 1.457031 2.363281 0.519531 L 4.183594 -4.023438 Z M 3.355469 -4.023438 "/></g></g></g><g fill="#024959" fill-opacity="1"><g transform="translate(84.733632, 25.929778)"><g/></g></g></svg>